<svg width="120" height="120" viewBox="0 0 120 120" fill="none" xmlns="http://www.w3.org/2000/svg">
<path d="M31.0763 30.5189C33.0043 32.0484 35.5075 32.6845 37.6844 32.1899C33.274 31.2973 30.7083 27.3634 31.1008 23.911C31.378 20.4014 34.4689 17.7462 37.6844 17.8121C40.897 17.7536 43.986 20.404 44.2613 23.911C44.6521 27.3593 42.0943 31.2909 37.6844 32.1899C39.8615 32.6882 42.366 32.0515 44.2964 30.523C46.2134 28.9848 47.5311 26.5339 47.6663 23.9113C47.8814 21.2873 46.8302 18.5741 44.9991 16.5962C43.1533 14.6113 40.422 13.4434 37.6844 13.4498C34.9475 13.4464 32.2158 14.6135 30.3737 16.6005C28.5405 18.5759 27.4956 21.2896 27.7088 23.9113C27.8433 26.5322 29.1612 28.9816 31.0763 30.5189Z" fill="#3493EC"/>
<path d="M85.7599 89.6214C86.0594 88.7025 86.2764 87.7169 86.4457 86.7021C89.9685 86.8375 93.6299 85.4534 96.3724 82.9272C99.4162 80.1296 101.258 75.8895 101.1 71.593C101.081 67.2768 99.0086 63.0124 95.7144 60.1246C93.4401 58.1041 90.2611 56.6658 86.7272 56.3256C85.5713 56.2376 84.6112 56.2353 83.6717 56.2312C76.0071 56.2693 68.3426 56.3622 60.678 56.7091C53.9429 56.99 47.208 57.4093 40.4729 58.1186C43.2137 53.9749 45.8419 49.8039 48.2842 45.48C50.9241 40.5719 53.6131 35.6734 55.3379 30.1751C55.7942 28.8192 56.1238 27.3755 56.3632 25.8876C56.5404 24.2963 56.5091 22.7949 56.2124 21.3361C55.6713 18.4109 54.4976 15.6008 52.668 13.3101C49.0796 8.66279 43.2135 6.10571 37.6844 6.60975C43.202 7.08862 48.1995 10.1126 50.9292 14.5421C52.353 16.7058 53.1496 19.2157 53.3925 21.7247C53.534 22.9918 53.4613 24.2585 53.2634 25.3976C52.9828 26.6078 52.633 27.842 52.1313 29.0686C50.1985 33.9737 47.4967 38.7552 44.7192 43.415C42.4784 47.1544 40.1148 50.8514 37.6849 54.4766C35.2559 50.8504 32.8895 47.1552 30.6546 43.4121C27.8742 38.754 25.1778 33.9698 23.2435 29.0665C22.7416 27.8401 22.3916 26.6065 22.1109 25.3968C21.911 24.2583 21.8423 22.9923 21.9828 21.7256C22.2252 19.2178 23.0194 16.7076 24.4442 14.5455C27.1712 10.1158 32.1671 7.09235 37.6844 6.60975C32.1547 6.10198 26.2869 8.65946 22.6959 13.3067C20.8673 15.599 19.691 18.4088 19.1495 21.3352C18.8519 22.7945 18.8246 24.2964 18.9999 25.8884C19.2389 27.377 19.5685 28.821 20.0246 30.1772C20.8794 32.931 21.9929 35.5244 23.2189 38.046C24.4142 40.5876 25.7437 43.0361 27.0793 45.483C29.8301 50.3348 32.7711 55.013 35.892 59.6557C36.7657 60.9415 38.6302 60.9178 39.4765 59.6556C39.6961 59.3281 39.8991 58.9954 40.1171 58.6675C46.9707 59.4004 53.8244 59.8284 60.678 60.1144C68.3426 60.4613 76.0071 60.5541 83.6717 60.5923C85.7206 60.5445 87.1266 60.5739 88.7568 61.0443C90.3242 61.4817 91.7861 62.2674 93.0697 63.2837C95.671 65.3084 97.339 68.4396 97.7137 71.7878C98.1005 75.1471 97.0985 78.7213 94.8276 81.4591C92.8279 83.959 89.8577 85.7482 86.4976 86.4254C86.5028 86.3922 86.5108 86.361 86.5159 86.3277C86.6461 85.0774 86.6097 83.9217 86.3676 82.8032C85.9246 80.5567 84.9968 78.4108 83.5735 76.6764C80.7741 73.1624 76.2645 71.3023 72.1147 71.8033C76.253 72.2852 79.894 74.6122 81.8347 77.9084C82.8523 79.5158 83.4029 81.3614 83.5479 83.1918C83.6345 84.1185 83.567 85.0395 83.416 85.8378C83.2004 86.7111 82.9354 87.6108 82.5533 88.515C81.0772 92.1209 79.0485 95.6938 76.9475 99.1588C75.4004 101.715 73.7764 104.25 72.1155 106.744C70.4548 104.25 68.8287 101.716 67.287 99.1559C65.1831 95.6925 63.1598 92.1172 61.6824 88.5129C61.3 87.6089 61.0349 86.7097 60.8192 85.8369C60.6662 85.0393 60.6025 84.119 60.6883 83.1927C60.8329 81.3635 61.3809 79.5175 62.3995 77.9117C64.3376 74.6155 67.9769 72.2889 72.1147 71.8033C67.9645 71.2986 63.4534 73.1592 60.6512 76.6731C59.2289 78.4091 58.2986 80.5545 57.8551 82.8023C57.6121 83.9213 57.5797 85.0776 57.708 86.3287C57.7161 86.3825 57.7291 86.4331 57.7375 86.4866C56.4048 86.3174 55.0722 86.1493 53.7394 86.0183C51.9822 85.8712 50.3908 85.6275 48.4564 85.6528C44.7054 85.8193 40.9625 87.7305 38.5799 90.8532C36.1045 93.9243 35.1928 98.1815 35.9614 102.109C36.7586 106.081 39.3472 109.585 42.8586 111.619C44.6269 112.61 46.6057 113.222 48.6141 113.396C49.7138 113.491 50.6054 113.44 51.4001 113.441L53.9809 113.397C57.4219 113.279 60.863 113.234 64.304 113.033C66.6142 112.925 68.9243 112.79 71.2345 112.638C71.9261 112.953 72.7114 112.909 73.3228 112.493C77.1986 112.208 81.0745 111.845 84.9503 111.337C81.6161 110.9 78.2817 110.567 74.9474 110.3C76.8976 107.322 78.7739 104.332 80.5127 101.224C82.4761 97.5104 84.4918 93.8208 85.7599 89.6214ZM64.304 109.641C60.863 109.44 57.4219 109.395 53.9809 109.277L51.4001 109.233C50.5134 109.216 49.898 109.246 49.0281 109.157C47.6099 109.006 46.2378 108.546 45.019 107.831C42.5418 106.465 40.646 103.993 39.9961 101.217C39.2501 98.4255 39.7832 95.3389 41.3562 92.8247C42.9471 90.3229 45.6053 88.3925 48.707 87.7807C50.1992 87.4701 52.0585 87.435 53.7394 87.2278C55.0888 87.0952 56.4382 86.9253 57.7876 86.7535C57.9558 87.7506 58.1691 88.7197 58.4634 89.6235C59.73 93.8245 61.7512 97.5117 63.7117 101.227C65.3772 104.189 67.1631 107.048 69.0171 109.891C67.4461 109.798 65.875 109.714 64.304 109.641Z" fill="#3493EC"/>
<path d="M67.8872 89.0112C69.1931 89.9139 70.8206 90.1879 72.1147 89.6964C69.5098 88.7559 68.5391 86.4367 68.9112 84.7834C69.2336 83.0846 70.6927 82.0288 72.1147 82.0512C73.536 82.0354 74.9893 83.0875 75.3123 84.7834C75.6813 86.4324 74.7197 88.7495 72.1147 89.6964C73.4092 90.1916 75.0379 89.9173 76.3464 89.0152C77.6313 88.0966 78.5977 86.5274 78.7435 84.7838C78.9228 83.0498 78.2927 81.1849 77.0519 79.8465C75.8229 78.493 73.9708 77.6842 72.1147 77.6889C70.2593 77.6872 68.4076 78.496 67.181 79.8501C65.939 81.1868 65.3153 83.0524 65.4919 84.7838C65.6393 86.5252 66.603 88.0937 67.8872 89.0112Z" fill="#3493EC"/>
</svg>
