<svg width="120" height="120" viewBox="0 0 120 120" fill="none" xmlns="http://www.w3.org/2000/svg">
<path d="M39.0861 35.7393C36.4044 36.6836 36.6432 40.755 39.8344 42.154C41.8817 55.9838 57.3913 57.5345 59.5127 42.5973C60.4293 42.34 61.3808 41.7584 61.8084 40.9397C62.5608 39.4951 62.3146 37.3175 61.1689 36.3869C62.557 30.9357 59.9121 25.8801 55.5132 24.2605C52.7336 23.2363 49.2236 23.9812 47.0034 25.9782C42.9476 25.0418 38.252 28.6656 39.0861 35.7393ZM51.6765 50.4849C48.8423 51.302 45.8035 49.5072 44.2688 47.2983C42.8252 45.2252 42.1126 42.4408 42.0226 38.5736C42.0456 38.4698 42.0432 38.3643 42.0383 38.2551C45.7611 39.1031 51.116 37.3593 54.0989 34.6405C54.7919 36.5838 55.9142 38.0472 57.3578 38.9238C57.294 39.1398 57.2941 39.3593 57.3489 39.5729C57.1955 41.7811 56.9521 44.0841 56.0734 46.1425C55.1383 48.3321 53.4945 49.9567 51.6765 50.4849ZM48.2708 28.1951C49.7325 26.5433 52.5923 25.8161 54.6616 26.5754C58.1603 27.8633 60.1513 32.2539 58.4864 36.7075C57.0666 35.744 56.4119 33.9695 56.1393 32.8698C56.0349 32.4492 55.7901 31.4636 54.8422 31.2661C54.2241 31.1345 53.6526 31.4074 53.1429 32.0704C50.9848 34.8792 44.2913 37.1235 41.527 35.4439C40.8606 29.8142 44.496 27.5155 46.871 28.5146C47.355 28.7201 47.9209 28.5884 48.2708 28.1951Z" fill="#3493EC"/>
<path d="M17.9152 45.3302C16.0412 63.6392 30.4138 79.7801 49.043 79.7801C64.8753 79.7801 78.5004 67.7724 80.1458 51.7033C81.8598 35.1055 70.0181 19.3251 52.2319 17.3866C35.0178 15.6268 19.6747 28.1074 17.9152 45.3302ZM27.8373 67.9649C30.4748 63.8093 35.7779 58.8762 41.0667 56.7188C43.401 59.6585 46.5524 61.7726 50.3096 61.4138C53.822 61.3637 56.7911 59.7389 59.1638 56.6209C62.6414 58.3619 68.5706 64.3797 70.289 67.8872C58.8934 80.3397 39.3683 80.5374 27.8373 67.9649ZM71.994 65.8412C69.8664 62.2691 63.0975 55.0976 59.1127 53.9177C58.7081 53.7989 58.3081 53.8943 58.0058 54.1367C57.2767 54.7231 55.3563 58.8715 50.1723 58.9544C46.4721 59.306 43.7735 56.325 42.4893 54.5126C42.2091 54.1154 41.572 53.8774 41.0501 54.0711C39.1583 54.7806 37.5056 55.5817 36.2719 56.3843C32.2221 59.0165 28.5393 62.5458 26.1832 65.9971C11.7279 47.1249 25.1149 19.6854 48.9876 19.6854C73.001 19.6854 86.1634 47.1572 71.994 65.8412Z" fill="#3493EC"/>
<path d="M87.7245 77.6242C87.2252 77.0896 86.5197 76.7798 85.7885 76.775C84.3927 76.8762 83.9513 77.4877 83.3795 78.0905C81.9652 76.6298 80.6176 74.9913 79.2453 73.7487C84.1843 67.8755 87.3147 60.6034 88.1266 52.7499C91.0055 24.7263 64.3336 4.0474 38.7488 11.3936C27.9658 13.7941 17.4915 21.6619 12.3867 31.7108C-0.170433 56.4295 15.4236 86.4389 42.9228 90.3166C54.7092 91.9786 67.127 88.074 75.9428 80.1C76.9026 81.0453 77.8624 81.9905 78.8221 82.9359C78.3511 83.4185 78.1016 84.0292 78.06 84.65C77.9611 84.9072 77.9544 85.2412 77.9932 85.5136C78.2873 87.5791 78.1629 88.6002 79.0081 89.5649C93.061 105.602 95.3057 108.949 98.6647 111.249C101.583 113.248 105.25 114.043 108.168 112.115C108.993 111.761 109.768 111.235 110.45 110.551C112.673 108.314 112.363 104.033 110.55 102.096C103.464 94.5254 94.9725 85.3738 87.7245 77.6242ZM85.7716 79.2407C86.0136 79.2407 85.7075 79.1486 108.749 103.781C109.654 104.747 110.007 107.499 108.703 108.811C106.928 110.595 104.631 110.421 103.78 109.509C80.3233 84.4413 80.2014 85.0569 80.5865 84.6554C82.1329 83.0892 83.8236 81.1772 85.6215 79.3033L85.7716 79.2407ZM85.6737 52.4979C83.2591 75.859 59.6519 91.081 36.8194 82.9265C36.7271 82.88 36.6291 82.8463 36.528 82.8254C17.5361 75.6639 8.68873 54.5083 15.0329 36.9682C19.8766 22.5866 33.6152 12.3668 49.4339 12.3668C71.0324 12.3668 87.8734 31.0924 85.6737 52.4979Z" fill="#3493EC"/>
<path d="M75.1068 14.9417C75.5683 14.9417 76.0114 14.6817 76.2217 14.237L78.9202 8.54135C79.2115 7.92652 78.9491 7.19129 78.3342 6.89912C77.7162 6.61017 76.9826 6.87023 76.692 7.48506L73.9935 13.1807C73.6053 13.9998 74.2075 14.9417 75.1068 14.9417Z" fill="#3493EC"/>
<path d="M81.3137 20.5186L89.4277 12.4423C89.9101 11.9623 89.9117 11.1821 89.4317 10.6989C88.9501 10.2157 88.1708 10.2157 87.6876 10.6957L79.5735 18.772C79.0911 19.252 79.0895 20.0322 79.5695 20.5153C80.0482 20.9973 80.8292 20.9998 81.3137 20.5186Z" fill="#3493EC"/>
<path d="M86.425 26.8595L93.0252 23.8737C93.6457 23.5927 93.921 22.8623 93.6401 22.2411C93.3599 21.6214 92.6255 21.3453 92.0091 21.6262L85.4088 24.6121C83.9456 25.2746 84.914 27.5376 86.425 26.8595Z" fill="#3493EC"/>
<path d="M105.322 107.419C106.361 107.419 106.945 106.189 106.259 105.386L104.414 103.224C103.973 102.704 103.195 102.641 102.676 103.086C102.158 103.527 102.096 104.306 102.537 104.823C104.219 106.615 104.379 107.419 105.322 107.419Z" fill="#3493EC"/>
</svg>
