<svg width="120" height="120" viewBox="0 0 120 120" fill="none" xmlns="http://www.w3.org/2000/svg">
<path d="M51.8052 60.3289C53.7506 63.4138 57.8589 64.9492 61.3905 63.8471C64.8871 62.7424 67.4084 59.1518 67.255 55.4957C67.1085 51.7449 64.4494 48.4274 60.9338 47.6071C58.2877 46.9897 55.1159 47.7165 52.7979 50.1594C50.2645 52.8228 49.8371 57.1932 51.8052 60.3289ZM55.2605 52.4997C57.3613 50.2842 59.8696 50.9631 60.2668 50.9418C62.2383 51.4579 63.7756 53.4527 63.86 55.6293V55.6353C63.9513 57.7757 62.4176 59.9601 60.372 60.6055C58.3263 61.25 55.8223 60.3297 54.6815 58.5202C53.5337 56.6926 53.7871 54.0481 55.2605 52.4997Z" fill="#3493EC"/>
<path d="M23.9042 47.1272C24.3742 47.5736 25.113 47.6465 25.6822 47.1469C25.6771 47.1762 25.6712 47.2082 25.6661 47.2374C26.2104 47.1018 26.5422 46.9071 27.0079 46.6675C27.2178 45.7867 27.6397 44.4648 27.9166 43.4444C28.6495 43.623 29.3773 43.8265 30.1036 44.037C27.9907 46.3327 24.9919 56.9018 27.6082 69.3295C30.1618 81.3114 34.4459 87.3486 35.4504 92.2622L35.4324 92.2442C36.2976 96.944 34.687 99.103 33.3818 102.82C33.3818 102.838 33.3639 102.856 33.3639 102.874C33.1727 103.352 32.7752 104.761 32.6634 105.997C31.8567 108.608 32.9416 111.078 34.5992 112.068C34.9164 112.257 35.2367 112.424 35.5577 112.588C39.4352 115.06 62.0389 120.542 86.385 114.107C86.8053 113.996 87.3756 113.853 88.0118 113.678C90.4643 113.002 90.137 110.329 87.5963 109.996C83.9333 109.517 79.1631 109.751 76.0798 110.644C76.936 109.426 77.3339 107.896 77.047 106.368C76.9452 105.645 76.8153 105.144 76.8643 103.957C76.9436 102.157 77.788 100.528 78.9892 99.8236C82.0256 98.1491 88.9109 100.599 93.7497 98.1365C96.1985 96.8914 98.3096 93.9858 97.6134 90.8709C97.3915 89.7528 96.6006 88.9069 96.4708 88.3565C96.2589 87.4805 97.6562 86.1671 97.9253 84.5591C98.2602 82.6609 97.4705 81.1722 97.2877 79.7725C96.9729 77.3462 96.164 76.8816 99.5487 75.7571C100.295 75.5094 102.468 74.7112 103.204 74.3354C105.649 73.1598 106.529 70.5317 103.299 67.1378C101.143 64.8838 100.576 63.7783 99.3885 62.2444C98.2768 60.7936 97.2133 58.7121 96.7259 57.6603C95.9346 55.9393 97.3876 53.4478 97.7358 51.0573C97.9379 49.594 97.9979 48.0715 97.9628 46.4625C100.401 44.6905 102.98 42.7156 105.794 40.4483C106.386 39.9712 106.457 39.0914 105.942 38.5268C103.747 36.1133 101.145 33.6411 98.6267 31.25C97.398 30.0824 96.1796 28.9269 95.0284 27.7955C94.6064 27.3791 93.9837 27.3237 93.4865 27.5884V27.5831C92.5373 28.251 92.5078 28.4204 92.0625 28.7447C91.9932 29.6163 91.9911 30.7025 91.9468 31.6547C84.0766 31.1979 77.0788 32.7198 71.0907 36.2047C71.0889 35.8974 71.0917 35.5903 71.0751 35.2827C71.2595 34.5971 70.9993 33.9007 70.4385 33.4939L70.2598 22.0134C71.7337 21.9027 73.1933 21.7515 74.6234 21.5809C75.8415 21.4358 76.0984 19.8635 76.2208 19.2487C76.3189 19.0548 76.3872 18.8446 76.3784 18.6118C76.3651 18.2339 76.349 17.9535 76.1233 17.6459C72.7727 13.0651 69.7157 9.20066 66.1813 3.50241C65.9573 3.14309 65.5747 2.9113 65.1525 2.88028C64.7544 2.84236 64.3184 3.02245 64.0461 3.34558C59.5849 8.61154 55.5124 13.0892 51.7483 18.1009C51.4607 18.4829 51.4113 18.9869 51.6007 19.4223L51.5931 19.433C51.7496 19.9583 52.9424 21.2131 53.4547 21.2695C54.6485 21.4005 55.8521 21.3429 57.052 21.374C57.0539 21.5581 57.2161 37.1271 57.2142 36.9488C56.323 36.9232 55.5172 36.9768 54.7379 37.072L52.3653 33.1991C51.8758 32.3995 50.8332 32.147 50.0284 32.6381C49.9562 32.6824 49.9133 32.7511 49.8502 32.8038L45.1477 35.6027C40.5601 32.7973 35.1593 31.0474 29.0403 30.4039C29.1022 29.3404 29.116 27.9051 29.1956 26.9801C28.5061 26.2771 28.2774 26.1644 28.1009 26.0173C28.1005 26.0197 28.1 26.0223 28.0997 26.0248C27.6791 25.8134 27.1644 25.8168 26.7494 26.1058C22.7764 28.8932 18.0452 31.8785 14.2173 34.8931C13.6286 35.3549 13.5325 36.2327 14.0467 36.8129C17.664 40.8792 20.8883 44.2526 23.9042 47.1272ZM94.3235 58.771C96.1407 62.6948 97.2367 63.7096 97.9943 64.8061C98.968 66.2322 100.109 67.6324 101.384 68.9654C102.492 70.1295 102.808 70.9688 102.74 71.3333C102.559 72.3138 97.644 73.217 95.9021 74.5663C93.9461 76.0311 94.2839 77.9234 94.5304 79.3046C94.7456 80.4732 94.6304 80.2971 95.0284 81.8095C95.5898 83.9528 95.397 84.2271 94.7423 85.3717C93.5828 87.3896 93.4119 88.5386 94.6079 90.5451C94.8026 90.87 94.9698 91.15 95.0232 91.418C95.4282 93.2267 94.0513 95.0138 92.5502 95.7772C88.3648 97.9038 81.796 95.2446 77.6795 97.5238C74.9581 99.1185 73.8138 102.734 74.2707 105.742L74.4396 106.823C74.7136 108.287 73.8726 109.755 72.4784 110.241C69.6987 111.217 66.657 111.934 63.4222 112.376C54.402 113.717 44.1919 113.544 36.2249 109.033C36.2118 108.753 36.2676 108.409 36.5105 108.059C46.433 93.3944 34.5972 86.3079 30.7511 67.0077C29.1043 58.7594 29.9659 50.9983 33.1303 45.0288C33.9832 45.347 34.4929 45.5376 35.759 46.0939C34.9049 48.4601 34.4546 50.3497 33.7118 52.1662C33.4435 52.8223 33.6231 53.4388 34.0813 54.0092C34.6232 54.605 34.6756 54.366 39.8901 56.4054L40.3954 59.8517C39.2852 60.9786 37.9941 61.9428 36.5961 62.679C36.4855 62.7028 36.3736 62.7036 36.2658 62.751C35.4075 63.1276 35.0163 64.1288 35.392 64.9879L38.158 71.298C38.4372 71.9347 39.061 72.3147 39.7159 72.3147L39.7188 72.3141C39.7895 72.3231 39.8577 72.3449 39.9296 72.3449C40.1519 72.3449 40.3777 72.3009 40.5948 72.2087L44.9949 70.3358C45.5308 70.7044 47.5308 72.0591 47.9876 72.3703L46.9083 77.1934C46.8764 77.2507 46.8262 77.2916 46.8006 77.3538C46.4997 78.0813 46.763 78.8751 47.3618 79.3307C48.0574 79.932 52.6243 81.2666 55.3242 81.2666C55.7938 81.2666 56.2154 81.0676 56.5245 80.7542C56.7751 80.5754 56.9851 80.3331 57.1113 80.0276C57.7774 78.4152 58.386 76.7624 58.9572 75.1042C60.5141 75.0797 60.9848 75.0318 62.2244 75.014L65.0043 79.1375C65.4198 79.7553 66.2272 80.0889 67.0613 79.739C69.5092 79.0211 71.758 77.8557 73.3987 76.4533C73.9418 75.9878 74.1133 75.2555 73.8961 74.617C73.8937 74.6096 73.8958 74.6021 73.8933 74.5947L72.3037 69.883C73.1147 68.8576 73.9887 67.885 74.9277 66.9828C75.2076 67.0468 79.2704 67.9765 79.015 67.918C79.1918 67.9498 79.2356 67.971 79.4355 67.971C80.0081 67.971 80.6927 67.6035 80.9803 66.9128C82.3353 64.3498 83.2344 61.3386 83.308 60.3675C83.4003 59.5759 82.9341 58.847 82.1837 58.5896C80.7182 57.6666 79.1814 56.8536 77.6073 56.125C77.8388 54.9076 77.9343 53.7991 77.8798 52.7958C79.4608 51.9417 80.9796 50.974 82.3635 49.8294C83.0873 49.2314 83.1873 48.1612 82.591 47.4382C82.5312 47.3657 82.4498 47.3279 82.3813 47.2681C82.1949 46.947 81.9872 46.6373 81.794 46.3195C82.9852 45.9805 84.185 45.6765 85.3986 45.4436C87.2407 45.0717 89.1179 44.8586 90.9956 44.7147C91.0687 45.6412 91.1098 46.6848 91.2072 47.5234C91.5657 47.7652 91.6573 47.9207 92.2498 48.3418C92.3364 48.4711 92.4394 48.5801 92.5648 48.6715C92.9911 49.2625 93.7843 49.3974 94.3735 48.9979C94.6833 48.7877 95.0085 48.5537 95.3229 48.3361C95.116 53.299 92.8505 55.5722 94.3235 58.771ZM93.4067 34.4046C94.0978 34.477 94.7509 33.9625 94.8423 33.2551L95.0672 31.5015C98.4172 34.7088 100.828 36.964 103.025 39.2756C99.9972 41.6871 97.2412 43.7576 94.6527 45.5796C94.6576 45.0401 94.6674 43.1846 94.6717 42.3862C94.6717 41.7202 94.1771 41.1584 93.517 41.0731C88.4941 40.4332 83.9437 41.0895 79.6508 43.0624C79.2968 42.5633 78.9563 42.0522 78.5877 41.5677C78.1538 40.9955 77.4278 40.7848 76.7736 40.9706C76.7536 40.9748 76.7344 40.9682 76.7144 40.9731C75.2431 41.3304 73.8186 41.8487 72.4367 42.4558L70.5995 40.6109C70.6832 40.2493 70.7607 39.8873 70.823 39.5226C77.0835 35.3368 84.6593 33.5935 93.4067 34.4046ZM64.8974 6.42951C67.4846 10.4679 69.7982 13.5536 72.6713 17.4276L68.837 17.5727C68.1184 17.6002 67.5531 18.1965 67.5634 18.916L67.7752 32.497C66.3133 32.0676 63.7455 31.4818 62.5312 31.4756C61.8523 31.3986 61.1703 31.7289 60.8355 32.3684C60.6213 32.7795 60.4569 33.2155 60.2626 33.637L60.1031 18.8815C60.0962 18.156 59.5051 17.5718 58.7795 17.5718H55.4983C58.3494 13.9599 61.3316 10.5946 64.8974 6.42951ZM61.1585 40.1901C62.124 39.4817 61.4643 39.0993 63.3747 34.9879C64.8399 35.2155 66.2844 35.5622 67.693 36.0292C67.7682 40.0944 66.5647 40.6058 67.3515 41.8528C67.5877 42.6392 67.8219 42.5214 70.8016 45.6287C71.2642 46.0937 71.9843 46.29 72.6976 45.9698C72.7995 45.9423 72.9039 45.9471 73.0023 45.8993C74.1388 45.3461 75.3352 44.9184 76.5534 44.5634C77.3923 45.7202 78.1847 46.9139 78.9281 48.1396C77.952 48.8448 76.9343 49.4863 75.8636 50.0382C75.7983 50.0447 75.7357 50.0269 75.6701 50.0413C74.7532 50.2421 74.1742 51.1477 74.3741 52.0646C74.6309 53.2364 74.5034 54.8116 73.995 56.7452C73.749 57.6768 74.3272 58.7129 75.4312 58.8497C76.8916 59.4858 78.3053 60.233 79.6734 61.0532C79.364 62.1695 78.9644 63.2581 78.4777 64.3107L74.5482 63.4102C73.6971 63.214 72.8676 63.7137 72.587 64.5242C71.4322 65.6317 70.3562 66.8291 69.3759 68.1011C68.8601 68.4792 68.6091 69.1081 68.7251 69.7517C68.7265 69.7621 68.7274 69.772 68.7291 69.7824C68.7433 69.8536 68.7322 69.9244 68.756 69.9951L70.2899 74.5415C69.3682 75.1674 68.2655 75.7137 67.0826 76.1435C66.8217 75.7579 68.0271 77.5404 64.5307 72.3733C63.6922 71.1437 62.6003 71.7375 58.3339 71.7083C58.3252 71.7053 58.3196 71.6981 58.3108 71.6952C57.425 71.4048 56.4599 71.8916 56.1687 72.7818C55.6201 74.4593 55.001 76.1288 54.346 77.7717C53.0179 77.6301 51.7118 77.3632 50.4438 76.952L51.588 71.8391C51.7931 70.924 51.2158 70.0158 50.3007 69.8107C50.2875 69.8078 50.2752 69.8125 50.262 69.81C48.3783 68.5027 47.8727 68.2234 46.4897 67.2466C46.1088 66.831 45.5412 66.6168 44.8361 66.7665C44.2158 66.9232 43.799 67.1839 40.6406 68.4968L39.1658 65.1332C40.7824 64.1516 42.2668 62.9259 43.5107 61.5188C44.2402 60.693 43.8198 60.3913 43.1178 55.0089C43.0363 54.4464 42.4735 53.7465 41.9476 53.5492L37.4412 51.8575C38.0032 50.2093 38.2296 49.3344 38.7451 47.8144L43.0284 49.3507C43.0776 49.3882 43.1084 49.4409 43.1626 49.4735C43.9627 49.9541 45.0079 49.7016 45.4943 48.8919C48.6092 43.55 48.7874 43.7512 48.8355 42.923C49.2658 41.8384 48.5288 41.3031 47.3524 38.2438L50.3703 36.4475L52.4325 39.8098C52.8213 40.4443 53.5932 40.7756 54.3598 40.5487C58.503 39.7149 59.8491 41.4676 61.1585 40.1901ZM26.106 29.7644L26.0343 31.5214C26.005 32.2357 26.5478 32.8441 27.2596 32.8958C33.5986 33.3566 38.9346 34.9487 43.5412 37.7219C43.5976 38.3618 43.6306 38.0744 45.4434 42.3813L43.3543 45.8574L40.0193 44.6612C35.3343 42.2849 30.8956 40.6118 26.3186 39.4988C25.9757 39.4152 25.5982 39.4755 25.2915 39.672C24.7039 40.0487 24.718 40.2975 24.1886 43.7058C21.9389 41.4862 19.5623 38.991 16.9729 36.1124C19.781 33.9971 22.9638 31.9041 26.106 29.7644Z" fill="#3493EC"/>
</svg>
