<svg width="16" height="16" viewBox="0 0 16 16" fill="none" xmlns="http://www.w3.org/2000/svg">
<g clip-path="url(#clip0_1_17)">
<path d="M7.98383 0.00584891C8.14962 0.0175445 8.30265 0.0584785 8.38555 0.192977C8.49396 0.36841 8.57685 0.555541 8.66613 0.742669C10.1392 3.68995 12.2117 6.12847 15.5213 7.51439C15.7572 7.6138 15.9868 7.71321 15.9995 7.99391C16.0123 8.28045 15.7699 8.3857 15.5404 8.47927C12.2308 9.85934 10.1583 12.2979 8.67248 15.2451C8.51944 15.5434 8.49393 15.982 8.00929 15.9995C7.50552 16.017 7.47361 15.5668 7.32695 15.2685C6.35129 13.2569 5.0377 11.4792 3.19479 10.0523C2.37218 9.41492 1.46667 8.88862 0.478259 8.49097C0.248692 8.3974 0.00637685 8.29799 0 8.0173C0 7.74245 0.204073 7.61965 0.446393 7.52024C3.79424 6.12847 5.8858 3.6724 7.3461 0.678344C7.48002 0.403498 7.52467 0.0350866 7.97743 0L7.98383 0.00584891Z" fill="#3493EC"/>
</g>
<defs>
<clipPath id="clip0_1_17">
<rect width="16" height="16" fill="white"/>
</clipPath>
</defs>
</svg>
